<svg xmlns="http://www.w3.org/2000/svg" width="1920" height="1080" viewBox="0 0 1920 1080" preserveAspectRatio="xMidYMid slice">
  <defs>
    <linearGradient id="bg" x1="0" y1="0" x2="1" y2="1">
      <stop offset="0" stop-color="#0a0720"/>
      <stop offset="0.4" stop-color="#2b0b3a"/>
      <stop offset="1" stop-color="#06121f"/>
    </linearGradient>
    <radialGradient id="glow1" cx="25%" cy="15%" r="60%">
      <stop offset="0" stop-color="#ff4fd8" stop-opacity="0.55"/>
      <stop offset="1" stop-color="#ff4fd8" stop-opacity="0"/>
    </radialGradient>
    <radialGradient id="glow2" cx="85%" cy="20%" r="65%">
      <stop offset="0" stop-color="#7c5cff" stop-opacity="0.45"/>
      <stop offset="1" stop-color="#7c5cff" stop-opacity="0"/>
    </radialGradient>
    <radialGradient id="glow3" cx="55%" cy="92%" r="55%">
      <stop offset="0" stop-color="#00d1ff" stop-opacity="0.28"/>
      <stop offset="1" stop-color="#00d1ff" stop-opacity="0"/>
    </radialGradient>
    <filter id="soft" x="-20%" y="-20%" width="140%" height="140%">
      <feGaussianBlur stdDeviation="12"/>
    </filter>
  </defs>
  <rect width="1920" height="1080" fill="url(#bg)"/>
  <g filter="url(#soft)">
    <circle cx="520" cy="170" r="420" fill="url(#glow1)"/>
    <circle cx="1600" cy="230" r="520" fill="url(#glow2)"/>
    <circle cx="1060" cy="980" r="480" fill="url(#glow3)"/>
  </g>
  <g fill="#ffffff" opacity="0.75">
    <circle cx="150" cy="220" r="2"/>
    <circle cx="380" cy="140" r="1.6"/>
    <circle cx="620" cy="260" r="1.8"/>
    <circle cx="980" cy="180" r="1.4"/>
    <circle cx="1240" cy="240" r="2"/>
    <circle cx="1420" cy="120" r="1.7"/>
    <circle cx="1680" cy="260" r="1.6"/>
    <circle cx="1740" cy="520" r="1.6"/>
    <circle cx="1300" cy="690" r="1.8"/>
    <circle cx="980" cy="760" r="1.4"/>
    <circle cx="520" cy="760" r="1.7"/>
    <circle cx="240" cy="610" r="1.5"/>
  </g>
  <g opacity="0.20">
    <path d="M0 760 C 320 700, 560 820, 860 770 S 1320 700, 1920 760 L 1920 1080 L 0 1080 Z" fill="#ff4fd8"/>
    <path d="M0 820 C 340 760, 580 890, 900 840 S 1380 760, 1920 820 L 1920 1080 L 0 1080 Z" fill="#7c5cff"/>
  </g>
</svg>

